<svg width="163" height="32" viewBox="0 0 163 32" fill="none" xmlns="http://www.w3.org/2000/svg">
<rect x="0.5" y="0.5" width="162" height="31" rx="15.5" fill="#FFDD00"/>
<rect x="0.5" y="0.5" width="162" height="31" rx="15.5" stroke="black"/>
<path d="M12.9961 22V20.4395L17.2461 16.3389C18.458 15.127 19.0889 14.4131 19.0889 13.4004C19.0889 12.2881 18.209 11.5742 17.0303 11.5742C15.7852 11.5742 14.9883 12.3545 15.0049 13.5664H12.9463C12.9297 11.292 14.6396 9.81445 17.0469 9.81445C19.5039 9.81445 21.1641 11.2754 21.1641 13.3008C21.1641 14.6621 20.5 15.7578 18.1426 17.9824L16.001 20.1074V20.1904H21.3467V22H12.9961ZM27.6719 22.166C24.7832 22.166 23.0566 19.9248 23.0566 15.9902C23.0566 12.0723 24.7832 9.81445 27.6719 9.81445C30.5439 9.81445 32.2871 12.0723 32.2871 15.9902C32.2871 19.9248 30.5605 22.166 27.6719 22.166ZM27.6719 20.3564C29.1826 20.3564 30.1123 18.8789 30.1123 15.9902C30.1123 13.1182 29.166 11.6074 27.6719 11.6074C26.1777 11.6074 25.2314 13.1182 25.2314 15.9902C25.2314 18.8789 26.1611 20.3564 27.6719 20.3564ZM34.0967 22V20.4395L38.3467 16.3389C39.5586 15.127 40.1895 14.4131 40.1895 13.4004C40.1895 12.2881 39.3096 11.5742 38.1309 11.5742C36.8857 11.5742 36.0889 12.3545 36.1055 13.5664H34.0469C34.0303 11.292 35.7402 9.81445 38.1475 9.81445C40.6045 9.81445 42.2646 11.2754 42.2646 13.3008C42.2646 14.6621 41.6006 15.7578 39.2432 17.9824L37.1016 20.1074V20.1904H42.4473V22H34.0967ZM48.8389 22.166C46.498 22.1494 44.1406 20.7549 44.1572 16.3223C44.1572 12.2051 46.0332 9.81445 48.9717 9.81445C51.2959 9.81445 52.8896 11.2754 53.1553 13.2178H51.0137C50.7979 12.3047 50.0674 11.6904 48.9717 11.6904C47.2285 11.6904 46.249 13.2344 46.249 15.7578H46.3652C46.9795 14.7285 48.1416 14.1143 49.4531 14.1143C51.6113 14.1143 53.2715 15.7412 53.2715 18.0156C53.2715 20.4062 51.4951 22.1826 48.8389 22.166ZM48.8389 20.4229C50.1836 20.4229 51.1797 19.377 51.1797 18.0654C51.1797 16.7871 50.2002 15.7578 48.8721 15.7578C47.5273 15.7578 46.498 16.8203 46.4814 18.082C46.498 19.3438 47.4775 20.4229 48.8389 20.4229ZM72.3301 15.6582V17.1357H58.6338V15.6582H64.5771V14.2305H60.3105V9.15039H70.6699V10.5947H62.1533V12.7695H70.7529V14.2305H66.3867V15.6582H72.3301ZM65.457 17.999C68.6943 17.999 70.6367 18.9785 70.6533 20.7383C70.6367 22.4814 68.6943 23.4775 65.457 23.4775C62.1865 23.4775 60.2275 22.4814 60.2275 20.7383C60.2275 18.9785 62.1865 17.999 65.457 17.999ZM65.457 19.4102C63.2656 19.4102 62.0869 19.875 62.1035 20.7383C62.0869 21.6016 63.2656 22.0498 65.457 22.0498C67.5986 22.0498 68.7939 21.6016 68.8105 20.7383C68.7939 19.875 67.5986 19.4102 65.457 19.4102ZM77.3604 9.56543C79.6182 9.56543 81.2451 11.624 81.2617 14.8613C81.2451 18.1318 79.6182 20.1738 77.3604 20.1738C75.0859 20.1738 73.4424 18.1318 73.459 14.8613C73.4424 11.624 75.0859 9.56543 77.3604 9.56543ZM77.3604 11.2256C76.0986 11.2256 75.2354 12.5703 75.2354 14.8613C75.2354 17.1689 76.0986 18.5137 77.3604 18.5137C78.6387 18.5137 79.4854 17.1689 79.4854 14.8613C79.4854 12.5703 78.6387 11.2256 77.3604 11.2256ZM85.0801 8.46973V14.2305H87.3877V15.791H85.0801V23.4775H83.2373V8.46973H85.0801ZM100.52 8.46973V23.4941H98.6934V8.46973H100.52ZM95.9043 9.78125V15.4092H90.7412V18.4307C93.1069 18.4141 95.1489 18.2979 97.4814 17.8994L97.6475 19.4102C95.0908 19.8584 92.8496 19.9414 90.1602 19.9414H88.8486V13.9482H94.0283V11.2754H88.832V9.78125H95.9043ZM118.582 8.46973V12.2217H120.674V13.7324H118.582V17.501H116.739V8.46973H118.582ZM118.582 18.1982V23.4775H116.739V19.6758H108.588V18.1982H118.582ZM109.086 9.41602V11.541H112.589V9.41602H114.415V16.6211H107.26V9.41602H109.086ZM109.086 15.1602H112.589V12.9854H109.086V15.1602ZM133.274 8.48633V12.1387H135.383V13.6826H133.274V17.4014H131.432V8.48633H133.274ZM133.274 18.0654V23.2949H123.562V18.0654H133.274ZM125.372 19.5098V21.8008H131.465V19.5098H125.372ZM128.858 9.25V13.6494H123.861V15.2598C126.41 15.2515 128.153 15.1685 130.203 14.8281L130.402 16.2891C128.161 16.7041 126.219 16.7705 123.247 16.7705H122.019V12.2549H127.049V10.7275H122.002V9.25H128.858ZM148.631 8.46973V23.4775H146.788V8.46973H148.631ZM136.196 19.3105C137.392 19.3022 138.745 19.3022 140.164 19.2607V17.8828C138.471 17.6172 137.375 16.5796 137.375 15.1602C137.375 13.4668 138.869 12.3379 141.061 12.3379C143.269 12.3379 144.796 13.4668 144.796 15.1602C144.796 16.5713 143.692 17.6006 142.007 17.8662V19.1943C143.327 19.1362 144.655 19.0283 145.908 18.8623L146.041 20.2402C142.737 20.8047 139.168 20.8379 136.462 20.8379L136.196 19.3105ZM145.643 10.1963V11.6572H136.512V10.1963H140.164V8.51953H142.007V10.1963H145.643ZM141.061 13.749C139.932 13.7656 139.118 14.2803 139.135 15.1602C139.118 16.0234 139.932 16.5381 141.061 16.5215C142.239 16.5381 143.02 16.0234 143.02 15.1602C143.02 14.2803 142.239 13.7656 141.061 13.749Z" fill="#0F172A"/>
</svg>
