<svg width="304" height="45" viewBox="0 0 304 45" fill="none" xmlns="http://www.w3.org/2000/svg">
<path d="M0 0H11.25V5.625H16.875V39.375H11.25V5.625H5.625V39.375H0V0ZM22.5 0H39.375V5.625H28.125V16.875H39.375V22.5H28.125V39.375H22.5V0ZM45 5.625V0H61.875V5.625H56.25V39.375H50.625V5.625H45ZM90 0H118.125V22.5H90V0ZM112.5 5.625H95.625V16.875H112.5V5.625ZM123.75 0H129.375V22.5H123.75V0ZM95.625 28.125H101.25V39.375H129.375V45H95.625V28.125ZM135 0H163.125V5.625H140.625V11.25H163.125V16.875H140.625V22.5H163.125V28.125H168.75V0H174.375V28.125H168.75V33.75H174.375V39.375H168.75V45H146.25V39.375H140.625V33.75H146.25V28.125H135V0ZM168.75 33.75H146.25V39.375H168.75V33.75ZM208.125 0H225V5.625H230.625V11.25H225V16.875H219.375V22.5H230.625V28.125H213.75V39.375H241.875V45H208.125V28.125H202.5V22.5H213.75V16.875H208.125V11.25H202.5V5.625H208.125V0ZM225 5.625H208.125V11.25H225V5.625ZM236.25 0H241.875V11.25H247.5V16.875H241.875V28.125H236.25V0ZM253.125 5.625V0H281.25V11.25H270V16.875H281.25V22.5H275.625V33.75H286.875V39.375H247.5V33.75H258.75V22.5H253.125V11.25H270V5.625H253.125ZM264.375 33.75H270V22.5H264.375V33.75ZM298.125 0H303.75V28.125H298.125V0ZM298.125 39.375V33.75H303.75V39.375H298.125Z" fill="#BE6958"/>
</svg>
